<?xml version="1.0" encoding="UTF-8"?>
<svg id="Layer_2" data-name="Layer 2" xmlns="http://www.w3.org/2000/svg" viewBox="0 0 37.9 36.79">
  <defs>
    <style>
      .cls-1 {
        fill: #221f1f;
      }

      .cls-2 {
        fill: #921e5b;
      }
    </style>
  </defs>
  <g id="Layer_1-2" data-name="Layer 1">
    <path class="cls-2" d="M15.08,8.41c-.03-.18-.06-.37-.06-.56,0-2.16,1.76-3.92,3.92-3.92s3.92,1.76,3.92,3.92c0,.19-.03.38-.06.56h3.95c.01-.19.03-.37.03-.56,0-4.33-3.52-7.85-7.85-7.85s-7.85,3.52-7.85,7.85c0,.19.02.38.03.56h3.95Z"/>
    <path class="cls-1" d="M11.1,7.85H0v28.94h37.9V7.85H11.1ZM35.68,17.38l-2.22,2.22v-9.53h2.22v7.31ZM31.24,25.61h-2.22v-2.22h2.22v2.22ZM29.02,10.07h2.22v11.1h-2.22v-11.1ZM26.79,21.17h-15.69v-11.1h15.69v11.1ZM8.88,25.61h-2.22v-2.22h2.22v2.22ZM8.88,21.17h-2.22v-11.1h2.22v11.1ZM6.66,27.83h2.22v6.74h-2.22v-6.74ZM11.1,23.39h15.69v11.18h-15.69v-11.18ZM29.02,27.83h2.22v6.74h-2.22v-6.74ZM4.44,10.07v9.53l-2.22-2.22v-7.31h2.22ZM2.22,20.52l2.22,2.22v11.83h-2.22v-14.05ZM33.46,34.57v-11.83l2.22-2.22v14.05h-2.22Z"/>
  </g>
</svg>