<?xml version="1.0" encoding="UTF-8"?>
<svg id="Layer_2" data-name="Layer 2" xmlns="http://www.w3.org/2000/svg" viewBox="0 0 37.9 37.9">
  <defs>
    <style>
      .cls-1 {
        fill: #221f1f;
      }

      .cls-2 {
        fill: #921e5b;
      }
    </style>
  </defs>
  <g id="Layer_1-2" data-name="Layer 1">
    <path class="cls-1" d="M4.44,0v11.18h4.44v2.36c-.36-.09-.73-.14-1.11-.14-2.45,0-4.44,1.99-4.44,4.44s1.99,4.44,4.44,4.44,4.44-1.99,4.44-4.44c0-1.11-.41-2.12-1.08-2.9l3.76-3.76h9.53V0H4.44ZM7.73,20.06c-1.25,0-2.26-1.01-2.26-2.26s1.01-2.26,2.26-2.26,2.26,1.01,2.26,2.26-1.01,2.26-2.26,2.26M22.2,8.96h-8.23l-2.87,2.87v-2.87h-4.44V2.22h15.54v6.74Z"/>
    <rect class="cls-1" x="8.88" y="4.51" width="2.22" height="2.22"/>
    <path class="cls-1" d="M37.9,31.24h-6.81v-2.22h6.81v-13.4h-20.13v13.4h6.66v2.22h-11.1v-3.33c0-3.07-2.48-5.62-5.55-5.62s-5.55,2.56-5.55,5.62v3.33H0v6.66h37.9v-6.66ZM19.98,17.84h15.69v8.96h-15.69v-8.96ZM26.65,29.01h2.22v2.22h-2.22v-2.22ZM4.44,27.9c0-1.45.94-2.72,2.22-3.2v4.31h2.22v-4.31c1.28.48,2.22,1.75,2.22,3.2v3.33h-6.66v-3.33ZM35.68,35.68H2.22v-2.22h33.46v2.22Z"/>
    <rect class="cls-1" x="13.32" y="4.51" width="2.22" height="2.22"/>
    <rect class="cls-1" x="17.76" y="4.51" width="2.22" height="2.22"/>
    <path class="cls-2" d="M12.21,17.84c0-2.45-1.99-4.44-4.44-4.44s-4.44,1.99-4.44,4.44,1.99,4.44,4.44,4.44,4.44-1.99,4.44-4.44M7.77,20.06c-1.22,0-2.22-1-2.22-2.22s1-2.22,2.22-2.22,2.22,1,2.22,2.22-1,2.22-2.22,2.22"/>
  </g>
</svg>